<svg xmlns="http://www.w3.org/2000/svg" width="148.949" height="20" viewBox="0 0 148.949 20"><defs><style>.a{fill:#fdc760;}</style></defs><path class="a" d="M395.453,140.827a5.956,5.956,0,0,0-4.432-1.87c-4.288,0-7.453,3.77-7.453,8.057,0,4.95,2.935,8,7.223,8a6.486,6.486,0,0,0,4.6-1.87v1.5h4.69v-15.4h-4.633ZM391.8,150.841a3.79,3.79,0,0,1,.173-7.568,3.624,3.624,0,0,1,3.655,3.8A3.706,3.706,0,0,1,391.8,150.841Zm40.432-3.482c0-5.468-3.137-8.4-7.568-8.4a7.7,7.7,0,0,0-7.885,8.029c0,5.151,3.28,8.029,8,8.029a8.053,8.053,0,0,0,7.194-4l-3.626-2.13c-.806,1.036-1.813,2.13-3.338,2.13a3.409,3.409,0,0,1-3.6-2.705h10.82Zm-10.647-2.3a2.97,2.97,0,0,1,3.021-2.187c1.468,0,2.245.691,2.82,2.187Zm-44.575-6.1c-2.82,0-3.827,1.18-5.036,2.446a4.78,4.78,0,0,0-4.345-2.446,6.032,6.032,0,0,0-4.317,2.3v-2.014h-4.6a19.953,19.953,0,0,1-3.54,11.05l-3.021-1.957h3.4a.357.357,0,0,0,.374-.345v-.921c0-5.237-2.878-8.6-7.77-8.6a7.777,7.777,0,0,0-7.856,6.244.349.349,0,0,0,.374.432h4a25.965,25.965,0,0,1-2.59,4.748c-.432.633-.863,1.18-1.266,1.669a23.817,23.817,0,0,1-4.547-4.345l-.921-1.151,5.727-6.7a.364.364,0,0,0-.259-.6h-5.525a.354.354,0,0,0-.288.144l-3.626,4.633v-8.144a.381.381,0,0,0-.374-.374h-4.547a.381.381,0,0,0-.374.374v3.741c0,2.676.921,4.2,2.647,6.417l.518.719a3.541,3.541,0,0,1-2.331,1.439c-1.957,0-2.446-2.331-2.446-4.892v-3.683a.381.381,0,0,0-.374-.374H319.6a.381.381,0,0,0-.374.374v.691a6.317,6.317,0,0,0-3.971-1.352c-4.575,0-6.734,3.453-8.2,7.942a11.09,11.09,0,0,1-.317-2.532,5.07,5.07,0,0,0-5.209-5.41,5.814,5.814,0,0,0-4.834,2.158,5.124,5.124,0,0,0-4.317-2.158,5.716,5.716,0,0,0-3.885,1.669v-1.007a.381.381,0,0,0-.374-.374h-4.461a.363.363,0,0,0-.374.374v15.05a.363.363,0,0,0,.374.374h4.576a.381.381,0,0,0,.374-.374v-8.23c0-1.611.748-2.561,2.072-2.561,1.237,0,1.583.518,1.583,1.957v8.835a.381.381,0,0,0,.374.374h4.633a.381.381,0,0,0,.374-.374v-8.23c0-1.583.806-2.561,2.072-2.561,1.439,0,1.7.691,1.7,2.014v8.806a.381.381,0,0,0,.374.374h2.072c1.036,0,1.612-.95,1.928-1.669a31.088,31.088,0,0,0,1.324-4.115c2.043,4.086,4,6.1,7.914,6.1a6.921,6.921,0,0,0,4.144-1.381v.662a.357.357,0,0,0,.345.374h4.6a.381.381,0,0,0,.374-.374v-1.468c0-1.554.317-3.108.748-3.108s.777,1.554.777,3.108v1.468a.357.357,0,0,0,.345.374h4.633a.381.381,0,0,0,.374-.374v-5.007l3.77,5.122a.354.354,0,0,0,.288.144h2.3a4.016,4.016,0,0,0,2.59-1.295c.2-.2.4-.4.6-.633a13.371,13.371,0,0,0,7.338,2.388,8.578,8.578,0,0,0,7.108-3.626c2.389,1.583,3.4,2.072,3.338,3.252v.115H363.4v-8.432c0-1.9,1.007-2.964,2.5-2.964,1.468,0,2.014.691,2.014,2.388v9.007h4.72v-8.4c0-1.842,1.007-2.993,2.5-2.993,1.525,0,2.129.691,2.129,2.417V154.7h4.662v-10.59A4.8,4.8,0,0,0,377.007,138.957Zm-73.151,14.906h-1.7V145.4c0-1.9-.748-2.763-2.446-2.763-1.784,0-2.82,1.468-2.82,3.309v7.856h-3.885v-8.46c0-1.755-.662-2.7-2.331-2.7-1.784,0-2.82,1.381-2.82,3.309v7.856H284V139.5h3.77v1.583a.37.37,0,0,0,.662.23,5.474,5.474,0,0,1,3.942-2.129,4.254,4.254,0,0,1,3.914,2.216.307.307,0,0,0,.259.2c.23,0,.288-.086.489-.288,1.554-1.554,2.3-2.129,4.489-2.129,2.791,0,4.46,2.014,4.46,4.691a11.3,11.3,0,0,0,.691,3.8C305.468,151.877,305.008,153.863,303.857,153.863Zm15.4-8.4a.385.385,0,0,0,.4.23.346.346,0,0,0,.317-.345v-3.626a5.643,5.643,0,0,1,.864,3.079,5.058,5.058,0,0,1-4.806,5.266,3.133,3.133,0,0,1-3.079-3.425,3.1,3.1,0,0,1,3.223-3.223A2.978,2.978,0,0,1,319.252,145.46Zm11.367,8.345h-3.885v-1.094c0-1.611-.317-3.856-1.5-3.856-1.209,0-1.5,2.389-1.5,3.856v1.094h-3.856v-1.094a.368.368,0,0,0-.633-.259,5.951,5.951,0,0,1-4.23,1.727,5.8,5.8,0,0,1-4.806-1.957,14.212,14.212,0,0,1-2.763-4.576c1.41-4.806,3.4-8.46,7.8-8.46a5.306,5.306,0,0,1,3.971,1.611v3.137a4.087,4.087,0,0,0-3.05-1.266,4.078,4.078,0,0,0-.144,8.144,5.835,5.835,0,0,0,5.554-6.014,6.337,6.337,0,0,0-1.612-4.288V139.5h3.741v3.309c0,3.079.806,5.64,3.194,5.64a4.089,4.089,0,0,0,2.763-1.583l.95,1.295Zm0-6.878-.46-.633.46-.6Zm0-2.446-.921,1.18-.4-.547c-1.755-2.36-2.5-3.482-2.5-5.985v-3.367h3.827Zm7.108,9.209H335.6l-4.23-5.755v-3.194l4.086-5.237H340l-5.41,6.3a.39.39,0,0,0,0,.489l1.094,1.381a23.881,23.881,0,0,0,4.633,4.432A4.106,4.106,0,0,1,337.727,153.69Zm10.532.489a12.443,12.443,0,0,1-6.82-2.216c.4-.489.806-1.036,1.237-1.669a24.713,24.713,0,0,0,2.763-5.151h5.41a.372.372,0,0,0,.345-.489,3.038,3.038,0,0,0-3.079-2.36,3.1,3.1,0,0,0-3.166,2.129h-3.827a7.064,7.064,0,0,1,7.022-5.237c4.547,0,7.05,3.165,7.05,7.885v.518H344.95a.4.4,0,0,0-.345.46,3.694,3.694,0,0,0,3.885,2.935,4.324,4.324,0,0,0,3.338-1.957l2.906,1.871A8.1,8.1,0,0,1,348.259,154.179Zm-2.475-9.755a2.265,2.265,0,0,1,2.331-1.41,2.188,2.188,0,0,1,2.187,1.41Zm5.64,3.914a3.779,3.779,0,0,1-2.935,1.9,3.025,3.025,0,0,1-3.05-1.9Zm7.281,4.419A13.8,13.8,0,0,0,355.8,150.7a21.918,21.918,0,0,0,2.907-6.194Zm58.446-13.512h-5.64l-4.4,5.554v-9.353h-4.662V154.64h4.662v-6.216c.346.46,4.6,6.216,4.6,6.216h5.87l-6.5-8.288Z" transform="translate(-283.281 -135.014)"/></svg>