<svg xmlns="http://www.w3.org/2000/svg" width="149.318" height="50" viewBox="0 0 149.318 50"><defs><style>.a{fill:#3296b8;}.b{fill:#fec658;}.c{fill:#ce1141;}.d{fill:#fff;}</style></defs><g transform="translate(-51.807 -187.689)"><rect class="a" width="49.81" height="50" transform="translate(51.807 187.689)"/><path class="a" d="M1329.3,1009.028" transform="translate(-1255.346 -797.767)"/><rect class="b" width="49.811" height="50" transform="translate(101.504 187.689)"/><path class="b" d="M1353.8,1009.028" transform="translate(-1230.146 -797.767)"/><rect class="c" width="49.811" height="50" transform="translate(151.314 187.689)"/><path class="c" d="M1378.422,1009.028" transform="translate(-1204.817 -797.767)"/><path d="M1354.51,1014.324c-.154-.479-.377-.856-.5-1.319-.428-.463-.48-1.2-.875-1.679.051-.429-.4-.533-.361-.944h-.087c-.412-.685-.652-1.421-1.065-2.108a10.022,10.022,0,0,0-.909-1.319c-.5-.89-1.134-1.8-1.7-2.706a8.616,8.616,0,0,0-.943-1.269c.035-.291-.223-.273-.241-.547-.308-.583-1.012-.411-1.649-.445-.12.1-.258.307-.463.29-.55.944-1.46,1.577-1.976,2.589-.155.273-.4.7-.7.822.016.291-.189.479-.361.7a1.278,1.278,0,0,0,.154,1.062c.223.172.377.463.55.583-.154.018-.035.291-.258.206-.1.1-.258.274-.361.359.053.242-.292.19-.2.413-.087.445-.637.206-.825.206-.327.154-.516-.257-.877-.122-.067-.255-.5.018-.566-.24-.138-.052-.481.1-.55-.12-.446.086-.739-.187-1.184-.086-.154-.273-.669.018-.791-.257v.052c-.051-.1-.378.034-.447-.12-.685.052-1.185-.291-1.735-.172v-.086h-1.2l-.069-.12a6.824,6.824,0,0,1-1.613-.086c-.069.155-.207-.12-.207.086-.1-.034-.276.07-.327-.086-.172.155-.739.052-.911.086a5.289,5.289,0,0,0-1.941.034v.086a2.72,2.72,0,0,0-1.681,1.319c-.088.034-.155.052-.122.172a4.669,4.669,0,0,0-.462,1.028c-.189.292.051.822-.207,1.064.053.411-.085.736-.034,1.147-.189.669-.293,1.335-.531,1.97-.361.018-.361.377-.7.411-.053.343-.5.291-.619.583-.223-.052-.241.258-.465.24a2.958,2.958,0,0,1-.566.583c-.069.052-.085.275-.258.24-.12.257-.292.549-.447.824h.035c.135.479.257.994.377,1.405a4.7,4.7,0,0,0,.446,2.022c.12.016.361.1.377.239h.122c.051.016.051.086.051.12.069.016.154-.034.207.052a5.722,5.722,0,0,0-.087,2.535,5.159,5.159,0,0,0,.738,1.08c.069.086.292-.034.241.154.2.086.446.086.584.258.308-.1.463.172.789.086.241.224.7.07,1.065.12a3.853,3.853,0,0,0,.584,2.263c.1.273.481.479.566.736a.156.156,0,0,1,.207.12c.43-.018.481.343.911.325a2.861,2.861,0,0,0,1.477-.359c.257.513.292.89.5,1.387.189.028.2.222.286.351a1.073,1.073,0,0,0,.467.4,2.4,2.4,0,0,0,1.428.042,8.452,8.452,0,0,0,1.593-.305c1.132-.321,2.355.168,3.353-.435a4.848,4.848,0,0,0,.781-.591,5.314,5.314,0,0,0,.806-.8,6.711,6.711,0,0,1,.783-1.032c.249-.234.487-.483.738-.715s.594-.4.868-.615c.258-.209.426-.515.765-.611.122-.036.034-.242.207-.206.257-.327.653-.5.962-.824.172-.341.584-.445.773-.822.276-.05.345-.411.584-.479.035-.172.292-.172.292-.343.635-.684,1.5-1.285,1.684-2.381.035-.206.292-.24.292-.445-.138-.4-.069-.807-.172-1.114.035-.241.343-.052.412-.172.43.068.43-.429.791-.445a.092.092,0,0,1,.12.12h.12c.069,0,.172-.018.172.086h.293c0,.289.464.136.653.12v-.086a5.011,5.011,0,0,0,2.387-1.234c.274-.122.515-.5.789-.481.081-.3.363-.4.564-.583a.656.656,0,0,0,.14-.172A7.845,7.845,0,0,0,1354.51,1014.324Z" transform="translate(-1261.602 -804.779)"/><path class="d" d="M1331.3,1010.726l.01-.016a.331.331,0,0,1,.262.016Z" transform="translate(-1253.29 -796.111)"/><path class="d" d="M1326.492,1017.177c.55.016.172-.481.172-.7a12.025,12.025,0,0,0-.877-2.708c-.138-.291-.241-.669-.48-.822-.5.445-1,.77-1.5,1.234-.207.7.189,1.269.258,1.92.068.24,0,.6.207.7.051.034.033.086.033.12h.122a.165.165,0,0,1,.2.086c.018.034.31.292.5.086A5.131,5.131,0,0,0,1326.492,1017.177Zm20.32.359-.016.024C1346.79,1017.609,1346.792,1017.613,1346.812,1017.537Zm1.9-4.678a7.519,7.519,0,0,0-.5-.994c-.534-.617-.892-1.543-1.477-2.09-.4-.669-.722-1.114-1.118-1.73a11.124,11.124,0,0,1-1.323-1.611c-.377-.223-.584-.687-.943-.858-.018.156-.172.12-.292.12-.156.224-.465.291-.449.583a12.733,12.733,0,0,1,1.805,2.3c.566,1.1,1.374,2.313,1.82,3.461.173.788.773,1.1,1.065,1.8.481.189.361,1.115,1.031.824a2.462,2.462,0,0,0,.876-.858A3.333,3.333,0,0,0,1348.717,1012.859Zm-1.493,3.119c-.154-.189-.018-.515-.12-.736a3.787,3.787,0,0,0-.619-1.064c-.241.052-.207-.274-.327-.343-.1-.1-.138-.274-.292-.326a18.124,18.124,0,0,1-1.564-2.792,9.3,9.3,0,0,0-.858-1.525,6.82,6.82,0,0,0-1.168-1.681c-.412-.12-.412-.6-.945-.531-.067-.016-.2.036-.2-.086l-.534-.086v-.034l-.531-.086v-.05c-.085,0-.343.034-.377-.156a3.52,3.52,0,0,1-1.153-.172c-.154-.034-.412.1-.446-.12-.584.138-.943-.239-1.493-.172v-.068c-.292-.034-.672.068-.86-.086-.7.086-1.012-.154-1.7-.12v-.086h-1.649c-.446-.393-.807.224-1.357-.05v-.036l-.5-.086v-.086c-.276.052-.722-.1-.86.138-.059.036-.109-.034-.124-.058l0,.006c-.1.138-.276.07-.412.086v.086c-.412-.068-.481.4-.876.359a1.678,1.678,0,0,1-.619.583,5.423,5.423,0,0,0-.155,1.064c-.154.788-.361,1.387-.465,2.193a11.9,11.9,0,0,1-.359,1.353c-.034.549-.55,1.2-.122,1.764.035.276.241.481.241.822a13.1,13.1,0,0,1,.667,2.193,7.54,7.54,0,0,0,.328,1.012c.4.427.7.222,1.357.257v-.086c.172,0,.136-.19.327-.12-.122-.223.2-.241.2-.463a5.114,5.114,0,0,0,.071-.6,5.4,5.4,0,0,0-.448-2.485c-.069-.377-.361-.531-.207-.976a2.006,2.006,0,0,1,.619-.343c.31.086.31-.221.619-.154a10.943,10.943,0,0,1,1.443-.942c-.016-.223.223-.309.379-.343l.531,1.08c.12.223.292.393.412.617.1.206.4.359.584.531a4.428,4.428,0,0,0,2.215,1.439c.018.189.345-.05.292.205.122.018.276-.034.379.036v.086c.154,0,.359-.018.412.12,0-.036-.018-.086.035-.12a.126.126,0,0,1,.051.12c.12.016.258-.036.361.05v.036c.738-.086,1.7.206,2.18-.241.4.07.7-.255,1.118-.086v.036h.12v.05c.258-.05.343.189.412.325.154.309-.1.4-.069.7-.126.06-.181.174-.266.257a.341.341,0,0,1-.284.1c-.136.24-.566.086-.858.136a.147.147,0,0,1-.12-.136.48.48,0,0,1-.322-.1h-.272c-.128.2-.461.07-.694.1-.018.188-.207.12-.327.136-.31-.221-.7-.1-1.118-.084-.073-.162-.294-.086-.4-.156a.117.117,0,0,1-.045-.052l-.5-.084v-.086c-.138-.018-.292.034-.412-.036-.122-.17-.379-.154-.533-.325-.377-.034-.464-.513-.823-.411-.122.138-.1.343-.172.531-.238.176-.231.319-.148.463s.236.277.321.447c.067.084.016.29.17.274a2.836,2.836,0,0,1-.051,1.2h.292c.069.273.463-.018.531.24.053,0,.138.034.173-.034.1.12.377-.018.361.205a1.29,1.29,0,0,1,.755.445.706.706,0,0,1,.414.549c.171.463-.156.822-.172,1.267a4.639,4.639,0,0,1,1.241.7l.116.086c.051.188.2.224.327.325a2.161,2.161,0,0,1,.412,2.211l-.154.086c-.088.341-.481.531-.739.617-.138.257-.4-.138-.414.05-.034-.034-.069-.05-.05-.084a.314.314,0,0,1-.361-.172c-.205-.411.326-.653.481-.978a1.6,1.6,0,0,0-.154-1.164,3.248,3.248,0,0,0-1.116-.824.26.26,0,0,0-.233-.154c-.177-.016-.381.052-.471-.172.051-.154.051-.359.171-.445.258-.531-.1-.96-.327-1.319a1.18,1.18,0,0,1-.67-.24l-.858.034c-.223.034-.464-.206-.534,0-.035-.034-.1-.068-.085-.12l-.085.086-.172-.172a.776.776,0,0,1,.085-.788.99.99,0,0,0-.239-.856,3.723,3.723,0,0,1-.533-.5h-.258c-.4-.224-.927-.086-1.392-.12-.035.12,0,.325-.136.377-.1.1.085.292-.156.274v.172c-.274.136-.136.6-.582.531-.311.463-.98.172-1.479.257-.462-.018-.5-.583-1.031-.377V1018c-.067.068-.17.016-.258.034v.086c-.274,0-.377.291-.651.171-.31.24-.98-.156-1.065.479a1.78,1.78,0,0,0,.48,1.9c.223-.068.24.1.412.154a1.443,1.443,0,0,1,.55.292c.154.052.43-.1.481.12h.258a.234.234,0,0,0,.057.052c.164.11.367-.06.475.154,1.29.052.1,1.577.706,2.229.067.24.274.359.359.531.156-.052.1.12.172.172.207.05.276.206.447.325.138.016.31-.036.412.034v.052c.069-.122.138.034.173.034.034-.224.361-.086.533-.12-.053-.156.154-.086.17-.172a2.052,2.052,0,0,1,.446-.206c.138-.361.706-.257.825-.567.308-.084.412-.359.738-.375v-.086c.034-.07.12-.018.172-.036v-.084c.016-.052.085-.036.12-.036v-.086c.05-.068.138-.034.2-.034.052-.222.31-.068.379-.341.361-.036.428-.377.738-.481.085-.154.2-.257.412-.138.412.052.258.6.292.874-.189.241-.274.6-.619.567v.086c-.034.086-.12.034-.17.05v.07c-.276.086-.448.359-.775.377-.343.375-.858.427-1.167.788-.189.479.17.771.17,1.182a.231.231,0,0,1,.087.206c.258,1.132,1.15.1,1.889.325.534-.018.826-.291,1.408-.206v-.068c.379.034.671-.24.98-.257a1.52,1.52,0,0,0,1.288-.12,1.617,1.617,0,0,0,.568-.5c.324-.07.412-.325.616-.5a1.571,1.571,0,0,1,.345-.325v-.086c.016-.052.069-.034.12-.034.069-.292.343-.411.531-.653.321-.681,1.047-1.07,1.6-1.523a8.057,8.057,0,0,0,1.114-1.03,6.707,6.707,0,0,0,.584-.411.646.646,0,0,1,.412-.377,4.128,4.128,0,0,1,.584-.617,2.869,2.869,0,0,0,.533-.651,6.127,6.127,0,0,0,1.376-1.672c.022-.174.18-.962.221-.88.138-.189.292-.463.138-.652l.018-.034C1347.188,1015.976,1347.2,1015.966,1347.224,1015.978Zm-16.645-2.143c-.12.549.377.892.207,1.407-.034.136.016.341.24.325s.568-.172.876,0c.138-.19.566.05.688-.206a1.12,1.12,0,0,0,.292-1.269c-.172-.307-.464-.325-.568-.7-.343-.222-.67-.086-1.082-.12v.086c-.345-.068-.412.291-.773.153C1330.476,1013.629,1330.391,1013.818,1330.579,1013.835Z" transform="translate(-1261.049 -801.378)"/><path d="M1333.853,1011.122c.343-.052.343.206.5.377-.122.274-.223.856-.619.89l-.7.052c0-.189-.241-.07-.292-.171-.276-.172-.67-.429-.446-.908a1.937,1.937,0,0,1,1.477-.359Z" transform="translate(-1252.334 -795.82)"/><path d="M1384.975,1014.28c-1.065-2.245-1.4-4.938-2.649-7.181a13.047,13.047,0,0,0-.8-1.962c-.3-.15-.365-.665-.55-.946-.6-.617-.665-1.463-1.483-1.8-.032-.2-.282-.15-.316-.316h-.134c-.183-.066-.416-.084-.515-.249-.284-.134-.083.233-.284.249-.051-.034-.032-.084-.032-.134-.167.234-.566.084-.834.134v.066c-.134.084-.3.034-.45.05v.084c-.349-.116-.249.349-.6.232-.15.118-.284.234-.434.367l-.083-.134a.174.174,0,0,1-.2.134v.066c-.4.05-.266.315-.633.4.018.232-.365.166-.333.4-.083-.018-.365.265-.55.4a3,3,0,0,0-.566,1.13c-.233-.034-.233.216-.483.15-.284.232-.633.365-.718.764a1.032,1.032,0,0,0-.282,1c.482.347-.15.581-.351.83a6.082,6.082,0,0,1-1.115.084c-1.515.166-3.2.016-4.682.116-.067,0-.134-.066-.115-.116h-1.534a.141.141,0,0,1-.116-.118c-.734.084-1.335-.15-2.033-.116v-.05l-.885-.084v-.032c-.25-.034-.617.1-.767-.118-.483.134-.649-.265-1.148-.116a.121.121,0,0,1-.051.116l-.067-.116v.066a1.529,1.529,0,0,0-1.132.4c-.434-.066-.45.449-.8.483v.082c-.349.118-.416.417-.749.567.051.266-.233.182-.317.316a5.913,5.913,0,0,1-1.083,1.146c.067.218-.116.218-.167.367-.25.249-.55.415-.8.681.049.4-.217.583-.233.948a2.124,2.124,0,0,1-.8.531v.068c-.033.082-.115.032-.166.05v.082c-.033.068-.1.018-.15.034v.084c-.065.066-.166.016-.249.032a3.369,3.369,0,0,1-.633.565.84.84,0,0,0-.716.483c-.1.05.033.281-.166.232a3.685,3.685,0,0,0,.083,1.164h.083c.068.068.017.183.033.267a1.6,1.6,0,0,1-.566.449c.016.116-.217.1-.067.232l-.6.4c-.092.18-.308.309-.456.457a.659.659,0,0,0-.112.142c-.317.116-.332.431-.6.6-.134.05-.034.331-.233.315.049.281-.418.281-.284.531-.616.649-.966,1.479-1.6,2.261a2.525,2.525,0,0,1-.4.731,2.28,2.28,0,0,0-.049,2.345c.1.547.617.631,1.049.8a7.128,7.128,0,0,1-1,1.6h-.083v.082c-.048.05-.048.168-.166.118a1.21,1.21,0,0,1-.467.647,1.441,1.441,0,0,0,.118,1.114c.1.168.25.234.349.483h.083c.067.281.268.381.517.549.067.066.033.166.167.116.051.034.032.084.032.134.284-.05.367.149.568.2.5-.05,1.116.082,1.483-.134.1-.034.333-.266.432-.034-.032.3.316.449.25.765a1.727,1.727,0,0,0,1.268.748v.084l1.566-.034.083.433a1.553,1.553,0,0,0,1.116,1.03c.1.166.333.066.4.2.483.166.834-.149,1.367-.149.282-.084.531-.349.867-.365v-.084c.048-.066.132-.016.2-.034.051-.115.217-.231.284-.315a1.714,1.714,0,0,0,.767-.6c.432-.3.882-.6,1.317-.914.1-.082.083-.316.282-.25a2.987,2.987,0,0,0,.434-.481c.384-.349.783-.465,1.083-.914.615-.433,1.25-1.18,1.915-1.678.051-.234.333-.266.367-.465a1.1,1.1,0,0,1,1.116-.4v-.084a.7.7,0,0,1,.517,0v.084c.234-.2.5-.134.65-.283.517.234.882-.25,1.515-.2v-.116a2.875,2.875,0,0,0,1.035-.249c.5-.016.882-.449,1.4-.515a.23.23,0,0,1,.2-.084v-.082c.067-.068.167-.018.25-.034v-.084c.249-.05.434-.166.718-.231,0-.05-.019-.1.032-.118a13.27,13.27,0,0,0,1.516-.93,12.856,12.856,0,0,0,1.85-1.828,12.71,12.71,0,0,0,.834-1c.166-.132.132-.365.365-.431.15-.814.9-1.114,1.351-1.729h.132v-.068c.15,0,.134-.182.316-.132.15-.184.418-.168.517-.4.2-.05.349-.215.6-.15v-.084c.034-.066.1-.032.168-.032.016-.267.365.016.4-.25a.754.754,0,0,1,.748.315,2.918,2.918,0,0,0,.967.283c.282-.218.282.231.6.082v-.082l.749-.084v-.034a2.012,2.012,0,0,0,1.15-.623,8.112,8.112,0,0,1,1.1-1.006l-.051-.05a4.709,4.709,0,0,1,.767-.748c.067-.05.016-.216.166-.166.1-.315.351-.465.517-.765C1385.292,1014.711,1385.074,1014.43,1384.975,1014.28Z" transform="translate(-1238.648 -804.965)"/><path class="d" d="M1376.615,1014.219c-.266-.315-.349-.733-.633-1.114a3.635,3.635,0,0,0-.482-.906,1.619,1.619,0,0,1-.167-.373,8.158,8.158,0,0,1-.55-.964c-.266-.134-.217-.648-.566-.8-.083-.134-.134-.349-.284-.4-.016-.349-.316-.515-.432-.8-.351-.365-.568-1-.968-1.345a3.7,3.7,0,0,0-.8-1.164c-.266.05-.416.231-.667.315-.032.266-.384-.016-.4.25l-4.364.034h-.235a10.2,10.2,0,0,0-1.566-.084c-.115-.1-.333.05-.432-.116h-1.483c-.067,0-.134-.068-.118-.118l-.966-.032v-.084a17.776,17.776,0,0,1-1.966-.116v-.05c-.217-.018-.5.066-.667-.084-.132.166-.416.034-.531.134a1.181,1.181,0,0,0-.351.232c-.05.068-.133.034-.2.034a2.732,2.732,0,0,0-.682.531c-.034.068-.1.018-.167.034-.351.433-.651.848-1.067,1.279-.15.233-.467.417-.566.683-.335.15-.533.515-.767.749-.1.132.051.349-.118.447-.032.349-.448.367-.6.633a7.508,7.508,0,0,1-1.233.8c-.092.228-.42.191-.538.373a.213.213,0,0,0-.029.058c-.034.084-.134.034-.2.05v.084c-.032.066-.134.016-.2.032-.083.217-.383.05-.351.367-.115.6.383.846.668,1.2.349-.182.482.317.649.15.016.034.05.05.032.084.15.034.4-.1.45.116.217.116.15-.2.351-.116a.087.087,0,0,1,.116.116h.083v-.082c.167.032.284-.234.316-.068.051-.032.067-.1.134-.082.016.016.051.032.032.082l.083-.166c.2,0,.233-.166.434-.166-.016-.2.217-.068.25-.234a1.871,1.871,0,0,0,.716-.681c.329-.148.447-.569.783-.74l.018-.008.008.008h.179a.246.246,0,0,1,.245-.142c.035-.25.4.034.45-.231.233,0,.432-.3.751-.2v-.084a3.575,3.575,0,0,1,.716-.283c.083-.215.4-.231.649-.231v-.084c.032-.066.134-.016.2-.032.016.032.1.066.083.116.282.016.333.333.432.565.166-.05.183.084.284.15a4.507,4.507,0,0,1,.5.457.769.769,0,0,1,.1.192c.268-.034.418.331.635.315.1.066.115.15.167.234.3-.15.4.281.633.2.067.016.167.082.116.166h.134c.067-.016.083.066.067.116h.134a.09.09,0,0,1,.115.116c.134.018.284-.032.4.05v.068h.117c.083,0,.2.016.166.132.135.034.365-.1.4.118l.15-.118c.1.25.566-.032.649.234-.016-.05.05-.084.067-.116.2.231.6.066.85,0a1.2,1.2,0,0,1,.234.631c-.183.184-.1.682-.483.682-.018.216-.335.082-.517.116,0,.05.016.1-.033.116a.251.251,0,0,1-.284-.116c0,.05.016.1-.033.116-.2-.216-.616-.066-.933-.116-.118-.15-.4-.05-.6-.084a2,2,0,0,0-1-.349c-.166-.2-.432-.231-.55-.449-.6-.132-.8-.665-1.316-.864-.116-.05,0-.3-.2-.2-.284-.4-.617-.547-.933-.93a9.81,9.81,0,0,1-1.517.683c-.116.247-.432.166-.6.365-.2-.018-.233.166-.434.15a2.823,2.823,0,0,1-.566.681c-.016.05-.067.05-.117.05-.132.349-.566.265-.716.6-.467.034-.9.481-1.483.315-.215-.016-.416.2-.633.034-.233.05-.566-.1-.684.116-.365-.3-1.032-.349-1.365-.714-.45.249-.684.8-1.2,1.08a15.654,15.654,0,0,0-1.434,1.6,2.729,2.729,0,0,1-.331.715,14.972,14.972,0,0,0-1.185,1.712c-.25.132-.217.531-.451.68.016.2-.15.234-.2.366.032.233-.067.533.083.714a1.366,1.366,0,0,1,.432.433c.083.1.3-.034.335.134a.775.775,0,0,1,.716,0c.15.216.383.365.4.665a4.267,4.267,0,0,1-.645,1.221c-.324.443-.708.846-1.071,1.255a2.014,2.014,0,0,0,.316,1.561c.217.2.666.05.8.234l.083-.116c.217-.068.5-.134.55-.433.351-.016.367-.481.8-.365.15.115.316.05.4.231.416.084.465.549.566.882.067.5.582.748.882,1.114.284-.066.917.166,1.032-.2.051-.066.167-.016.233-.034.15-.082.15-.315.367-.315a7.13,7.13,0,0,1,1.033-.715,6.761,6.761,0,0,0,.767-.565c-.032-.315.434-.134.434-.4.032-.066.116-.034.166-.034-.083-.3.3-.281.365-.4.018-.05.067-.05.118-.05v-.082c.234.016.282-.266.483-.266v-.134c-.016-.084.083-.066.15-.066.218-.483.666-.517.917-.964a.49.49,0,0,0,.055-.142c.028-.092.069-.186.195-.176.116-.4.416-.665.432-1a13.041,13.041,0,0,0,1.2-.848c.266-.016.2-.265.45-.315v-.084c.2.016.233-.283.433-.266v-.084c.233,0,.182-.3.367-.365a.605.605,0,0,1,.633.25h.115c.4,1-.765,1.245-1.148,1.828a1.744,1.744,0,0,0-.367.315c-.406.034-.625.367-.791.74-.089.193-.162.4-.241.573h-.083a8.5,8.5,0,0,1-1.05,1.247,4.217,4.217,0,0,0-1.065.914,1.855,1.855,0,0,0-.485.315c-.083.2-.3.084-.365.315-.418.034-.55.4-.833.6-.15-.034-.167.084-.25.134-.316.249-.633.447-.95.665-.184.1-.383.232-.4.4.116.331.381.481.55.681.116.034.266-.066.333.084a1.7,1.7,0,0,0,.866-.084.781.781,0,0,1,.6-.234c.132-.248.349-.281.483-.481.332.166.166-.415.515-.234v-.082c.3-.118.4-.25.651-.367-.15-.347.25-.116.316-.347.3-.167.332-.467.6-.683.45.066.5-.415.885-.449a3.738,3.738,0,0,1,.633-.515c.233-.15.265-.349.515-.4.051-.3.3-.365.485-.549-.1-.415.483-.166.448-.565a1.984,1.984,0,0,0,.531-.938,2.106,2.106,0,0,1,.335-.657c.168.016.268-.216.367-.034a6.159,6.159,0,0,1,1.483-.132c.083-.1.2-.034.284,0a3.323,3.323,0,0,1,1.2-.234c.016-.265.45.016.517-.233.5-.032.882-.216,1.231-.25a.963.963,0,0,0,.683-.281c.268.034.367-.184.566-.266.351.1.4-.333.718-.25a9.587,9.587,0,0,1,1.231-.633c-.032-.25.3-.016.316-.2.067-.2.233-.331.4-.282.266-.283.6-.4.85-.714a1.838,1.838,0,0,0,.55-.449v-.066a1.75,1.75,0,0,0,.4-.367c.032-.182.282-.116.25-.365a.993.993,0,0,0,.485-.515,1.421,1.421,0,0,1,.2-.284c.282-.182.15-.73.55-.83.048-.084-.018-.283.166-.234.1-.265.384-.415.6-.565.035-.1.067-.3.233-.232.034-.349.483-.068.483-.449l.035.05.483-.365c.268.132.217-.267.483-.118.067-.25.45-.132.568-.365C1376.8,1014.584,1376.531,1014.468,1376.615,1014.219Zm1.483-2.477c-.167-.234-.315-.483-.483-.715-.032-.549-.566-1-.832-1.429-.067-.6-.568-.864-.718-1.447h-.083c0-.315-.316-.315-.316-.6-.215-.066-.15-.4-.333-.431-.15-.216-.2-.433-.349-.683a1.823,1.823,0,0,1-.651-.83c-.15-.034-.183-.315-.266-.365-.032-.068-.117-.118-.083-.2-.267-.066-.133-.3-.316-.433-.2,0-.083-.3-.284-.332.067-.315-.55-.233-.6-.068-.282,0-.132.433-.282.549v.2a1.128,1.128,0,0,0,.233.315.141.141,0,0,1,.049.134c.185-.05.1.216.233.2a8.167,8.167,0,0,1,.45.749,5.514,5.514,0,0,1,1.033,1.395c.184.6.6.665.718,1.248.182,0,.132.234.2.349.349.082.3.515.517.681,0,.284.3.216.25.515a2.56,2.56,0,0,1,.4.6,23.791,23.791,0,0,1,1.2,2.443c.266.3.282.716.515,1.032l.2-.084c.483.066.483-.2.716-.481C1378.865,1013.3,1378.465,1012.522,1378.1,1011.742Z" transform="translate(-1237.936 -802.71)"/><path d="M1358.22,1007.476a.143.143,0,0,0,.116.132,1.2,1.2,0,0,1,.917.8c-.115.216.249.349,0,.515.268.249.351.615.651.8.033.381.55.665.631,1.08.15.449.718.932.367,1.463a.824.824,0,0,1-.6.283c-.034-.084-.1-.15-.2-.118a6,6,0,0,0-1-1.628,8.092,8.092,0,0,0-.716-1.13c-.25-.234-.649-.633-.883-.864a1.279,1.279,0,0,1,.032-1.13C1357.821,1007.657,1357.9,1007.408,1358.22,1007.476Z" transform="translate(-1226.455 -799.325)"/><path d="M1353.531,1010.293c.016-.05.067-.05.115-.05.233.315.635.73.4,1.164-.051.016-.134-.034-.168.032v.084c-.266-.066-.416.315-.6,0-.284.05-.4.3-.517.483-.233.166-.515.231-.515.6h-.117c-.783.782-1.6,1.6-2.282,2.311-.249-.066-.15.349-.4.283a4.557,4.557,0,0,0-.483.515c-.284.216-.383.381-.635.549.018.331-.416.347-.6.447-.016-.215-.25-.05-.316-.2a.9.9,0,0,1-.2-.681c.134,0,.083-.166.15-.234a1.936,1.936,0,0,0,.833-.765c.349-.032.282-.381.6-.515.3-.132.367-.6.735-.681v-.068c.3-.048.333-.381.515-.531l.351-.349c.2-.084.266-.331.4-.449.183.084.15-.116.2-.2a4.765,4.765,0,0,0,.483-.515,6.635,6.635,0,0,0,.966-1.2c.134-.018.2-.217.284-.317A.926.926,0,0,1,1353.531,1010.293Z" transform="translate(-1236.927 -796.807)"/><path d="M1356.7,1011.629a.677.677,0,0,1-.049.864c-.166.381-.85-.1-.917.449l-.166.082c-.217.415-.7.633-.949,1.032-.335-.018-.3.331-.485.431a6.152,6.152,0,0,1-.8.648c-.217.249-.515.5-.716.714-.051.016-.134-.034-.167.034v.082c-.035,0-.1,0-.118.05v.068c-.432.182-.582.631-.965.8-.067.034-.016.118-.033.168-.1.1-.334,0-.316.2-.051,0-.1-.018-.118.032v.084a.139.139,0,0,0-.134.05c-.049.281-.5.15-.55.515a5.986,5.986,0,0,0-1.116.914c-.083,0-.317-.066-.332.116h-.55c-.15-.116-.185-.365-.284-.549.051-.1.083-.347.233-.365.1-.266.451-.232.566-.515.083-.016.185.034.233-.05a1.015,1.015,0,0,0,.252-.315,9.421,9.421,0,0,0,.915-.714c.3-.118.45-.5.8-.6.116-.233.515-.283.6-.6a2.779,2.779,0,0,0,.683-.565c.416-.216.566-.649,1-.83a4.959,4.959,0,0,1,.716-.833l.032.034c.434-.633,1.167-1.13,1.65-1.8A1.219,1.219,0,0,1,1356.7,1011.629Z" transform="translate(-1236.17 -795.566)"/><path d="M1409.19,1012.761c-.063-.14.016-.359-.187-.419-.107-.641-.345-1.1-.505-1.74-.28-.15-.136-.529-.251-.816a.439.439,0,0,0-.148-.2c-.156-.351-.312-.667-.45-1.05a1.872,1.872,0,0,0-.3-.633c-.324-.391-.276-1.076-.762-1.355.016-.341-.231-.577-.337-.874-.144-.246-.344-.357-.349-.633-.211-.268-.278-.665-.58-.85-.25-.184-.11-.6-.45-.688.15-.629-.529-.419-.5-1-.032-.036-.2-.1-.144-.212a1.293,1.293,0,0,0-.566-.439c-.063.255-.513-.04-.629.212-.318-.152-.337.259-.657.09-.168.317-.677.176-.85.545-.288-.082-.272.3-.546.266-.1.407-.6.281-.783.583-.225.024-.3.241-.493.267l-.006.12c-.28.09-.146.559-.489.545a2.066,2.066,0,0,0-.292,1.1c.008.206.3.459.006.617-.314.088-.4.427-.6.641-.424.255-.471.87-.959,1.054a1.006,1.006,0,0,0-.241.779,5.032,5.032,0,0,0-.438.581.607.607,0,0,1-.546.231l0,.086c-.158.078-.345.018-.5.028l0,.07a.138.138,0,0,1-.124.046c-.075-.228-.39-.1-.576-.148-.117.3-.272-.082-.5-.022l0,.068c-.02.05-.071.048-.122.046-.017-.036-.051-.054-.033-.088-.14.062-.42-.207-.5.064l-.081-.124c-.152-.008-.323-.05-.381.1-.014-.052-.083-.072-.063-.124-.17-.024-.363.018-.5-.074l0-.086-.261.126-.063-.14-.176.078,0-.036-.647-.116v-.034l-.906-.092a.826.826,0,0,0-.668-.066,4.526,4.526,0,0,1-1.318.266l0,.086c-.377-.034-.542.18-.915.078l0,.086c-.089.064-.223.006-.327.018l-.006.086c-.087.066-.223.024-.343.018l0,.086c-.292,0-.469.1-.78.086l0,.084c-.124.082-.276.022-.414.034.041.26-.308-.032-.3.226-.094-.228-.126.1-.292-.014l0,.086c-.071.066-.188.008-.292.022a.661.661,0,0,1-.628.176l0,.086c-.039.068-.14.028-.209.026l0,.084c-.039.084-.138.028-.207.042l0,.07c-.069.014-.162.146-.243.04,0,.034.014.1-.039.118-.152-.042-.231.178-.272.313-.3.158-.424.6-.606.846.014.431-.39.583-.39.96a6.141,6.141,0,0,0-.546,1.417c-.182.213-.118.681-.495.646-.15.25-.618,0-.673.413a2.288,2.288,0,0,0-.966.453.5.5,0,0,0-.342.192.413.413,0,0,1-.43.134c-.016.393-.44.254-.669.381a.423.423,0,0,1-.389.24l0,.086c-.02.05-.071.03-.122.028l0,.086c-.239-.046-.371.224-.513.3-.036.068-.138.028-.207.026a6.214,6.214,0,0,1-.98.709c.055.347-.258.4-.471.545-.167.25-2.633,1.543-2.816,1.74-.256-.046-.188.369-.4.393l0,.068a5.41,5.41,0,0,0-.921.611c-.083.27-.394.307-.441.563-.3.124-.489.561-.821.664a4.169,4.169,0,0,0-.041,1.92c.028.126.063.257.105.4.363.343.615.818,1.27.8l0,.086c.294-.038.474.158.787.1.2-.333,3.028-1.181,3.169-1.587a7.116,7.116,0,0,0,1.328-.692,7.726,7.726,0,0,1,1.085-.585,4.892,4.892,0,0,1,.972-.539c.168-.317.531-.335.733-.619a12.114,12.114,0,0,1,1.45-.892c.069.036.012.12.026.172a2.2,2.2,0,0,0-.56.627c-.343-.034-.339.6-.734.635a18.225,18.225,0,0,1-1.381,1.205l-.067.066a2.319,2.319,0,0,1-.7.6l0,.086c-.039.066-.1.012-.156.026l0,.086c-.039.068-.122.028-.175.026-.04.17-.231.2-.3.277-.041.154-.083.323-.3.243-.556.884-1.316,1.707-1.978,2.621a1.707,1.707,0,0,1-.69.79c.144.214-.167.611.085.743a2.138,2.138,0,0,0,.473,1.307,2.915,2.915,0,0,1,.527.505l.207.01a.149.149,0,0,1,.114.142.966.966,0,0,1,.444.054l0,.086.582.028c.15-.267.635.046.785-.221.233-.212.64-.074.777-.445.215.166.2-.3.455-.15l.006-.12a4.426,4.426,0,0,0,1.067-.774c.11-.15.3-.192.391-.307.1-.014.148-.2.282-.126.029-.256.325-.345.57-.453l0-.085c.022-.084.105-.03.158-.044.274-.381.692-.5.952-.9.31-.02.231-.5.6-.417.162.229.089.655.32.872a1.511,1.511,0,0,0,.757.773c.087.329.479.056.477.433l.274.064c.1.537.8.225,1.1.343l.091-.134c.29.082.443-.238.8-.17.219.473.491,1.257,1.124,1.339.043.19.308.032.314.256.152.058.434-.084.459.14.294-.02.734.138.864-.08.27.116.251-.246.5-.132-.006-.224.237-.279.4-.359.193-.419.712-.533,1.024-.948.09-.046.013-.255.181-.2.065-.271.357-.257.438-.545.442-.272.552-.387,1.128-.24v.034c.136.04.542.162.656-.038.051.02.03.07.028.122.063-.272.428.036.474-.236.325.066.357-.293.635-.331.329-.054.428-.341.676-.467l0-.086c.037-.066.12-.012.173-.026.612-.607,1.4-1.359,2.032-1.964a3.1,3.1,0,0,1,.724-.756,1.9,1.9,0,0,0,.2-.333.792.792,0,0,1,.454-.459,2.045,2.045,0,0,1,.53-.681c.659-.844,1.262-1.623,1.976-2.533.051-.357.432-.443.53-.678a5.475,5.475,0,0,0,1.379-1.206c.507-.166.708-.826,1.163-.976.045-.2.306-.311.383-.481.247-.022.365-.224.5-.387a.541.541,0,0,1,.264-.193c.032.036.1.072.081.124.258-.022.61.132.742-.086.112.194.071-.066.2.008.053,0,.045.14.051.038.162-.164.467-.064.58-.266.284.168.27-.245.554-.094l0-.086c.038-.068.138-.01.207-.026.124-.405.777-.427.868-.9-.006-.224.335-.174.227-.453A2.746,2.746,0,0,0,1409.19,1012.761Z" transform="translate(-1213.402 -804.912)"/><path class="d" d="M1375.056,1021.038c-.075-.194.3-.074.221-.281.343,0,.444-.341.757-.377a1.48,1.48,0,0,0,.637-.417c.034.018.067.038.048.088.024-.188.335-.208.377-.36.493.126.4-.5.846-.459.083-.287.462-.305.574-.505.018-.052.071-.032.122-.03.059-.168.2-.162.256-.331.489-.166.586-.778,1.154-.8.035.036.1.074.081.124.02-.068-.027-.156.044-.2.4.19.3-.449.716-.257l0-.07c.057-.082.14-.028.209-.042.177-.078.117-.3.109-.491a9.758,9.758,0,0,1-.666-2.707l-.093.132a1.089,1.089,0,0,0-.665.3c-.608.126-.889.595-1.481.755-.225.437-.8.479-1.067.774-.85.184-.986.849-1.625,1.315-.448.409-3.327,2.026-3.8,2.467-.105.064-.081.271-.3.226-.2.25-.716.637-.836.992a1.821,1.821,0,0,0,.392,1.561c.26-.022.6.1.777-.05.195-.128.424.124.473-.183C1372.541,1022.259,1374.821,1020.924,1375.056,1021.038Zm9.171-.11a2.442,2.442,0,0,1-1.477-.034v-.034l-.257-.012a.145.145,0,0,1-.114-.126.809.809,0,0,1-.513-.435c-.146-.2.012-.653-.3-.631-.805.649-1.523,1.319-2.294,1.986l-.119-.006c-.047.273-.467.443-.651.675-.31.054-.29.329-.635.381l0,.086a3.317,3.317,0,0,0-1.339,1.413c-.43.375-.625.882-1.055,1.273-.294.415-.836.6-.917,1.194a1.671,1.671,0,0,0,.3.631c.051.02.032.07.028.122.223.044.311.357.607.267.229.251.683.117,1.024.183l0-.086c.306.05.455-.184.682-.26.025-.169.317-.158.375-.309.105-.405.6-.263.7-.637.449-.03.6-.641,1.1-.72.092-.082.017-.341.219-.248.284-.192.42-.547.769-.651a8.837,8.837,0,0,1,.827-.784c.126-.132.252-.263.4-.393.022-.086.105-.03.156-.046.108-.441.645-.553.753-.994.326-.02.343-.379.637-.417C1383.481,1021.82,1383.862,1021.373,1384.228,1020.928Zm19.1-7.766a5.9,5.9,0,0,0-1.309-1.467c-.266-.561-.824-.776-1.128-1.235a5.424,5.424,0,0,0-.6-.439c-.1-.365-.59-.234-.588-.645-.8-.6-1.558-1.255-2.357-1.842l-.379.4c-.365.1-.854.269-1.219.355a12.351,12.351,0,0,1-2.444.042c-.053.014-.117-.058-.114-.125l-.737-.068,0-.086c-.521.114-.812-.277-1.313-.231v-.034c-.318-.17-.777.1-1.11-.172-.264.142-.685-.032-.9.164-.39-.138-.528.233-.966.076-.15.234-.451.03-.544.216-.3-.1-.523.163-.777.05-.047.271-.393-.036-.424.237a7.243,7.243,0,0,0-1.428.415c-.3-.152-.289.261-.59.11.02.327-.38.016-.457.219-.4.838-.746,1.613-1.146,2.451a14.084,14.084,0,0,1-1.087,1.974,8.864,8.864,0,0,0,.659,3.564l.013.094a5.835,5.835,0,0,1,.288,2.355c.1.056.195.231.333.221.053-.014.136.024.116.092.037-.034.075-.1.124-.08.018.016.051.052.032.086l.175-.078c.01.172.2.112.32.136.178-.146.556-.112.521-.473.487-.15.449-.768.588-1.209l.051,0a6.812,6.812,0,0,0,.044-.934,5.939,5.939,0,0,0-.4-2.086l-.051,0c-.124-.316-.061-.569-.166-.866.11-.148.156-.387.363-.4l.065.09c.187-.695.176.266.58.062-.158.473.426.447.373.874.184.078.211-.128.251-.229.3.136.3-.244.588-.092.067-.323.554-.1.8-.255,0-.12.144-.13.245-.108.225.335.58.437.7.77l.09-.082c.3.2.49.519.923.5.156.349.594.13.769.447.185.112.639-.056.765.189l1.081.05a2.195,2.195,0,0,0,1.085-.4l.114.124c.045-.219.365-.068.556-.094l0-.085a.71.71,0,0,1,.531.024l0,.086.12.006a1.184,1.184,0,0,1-.008.908,1.312,1.312,0,0,1-.76.5c-.168.268-.613.229-.927.318-.215-.164-.6-.044-.852-.16,0-.1-.2-.112-.281-.218a2.1,2.1,0,0,1-1.189.03l0-.084c-.221-.046-.57.076-.663-.152-.12-.022-.276.022-.359-.05l0-.086a.622.622,0,0,1-.54-.231l-.119-.006c-.069.014-.205-.026-.148-.126-.1-.006-.241-.028-.251-.15a1.046,1.046,0,0,1-.55-.385c-.388.188-.188-.385-.54-.232a.9.9,0,0,1-.578.214c-.057.136-.19.06-.294.074l0,.084c-.089.066-.225.008-.329.02a8.645,8.645,0,0,1,.093,1.247,8.531,8.531,0,0,1-.213,2.092,7,7,0,0,1,2.236-1.1c.093-.184.357.068.385-.188.306.082.607-.092.823.038.221.044.588-.076.647.15a2.453,2.453,0,0,1,.54.232c.1.142.264.251.343.393l.085,0c.053.361.351.581.163.984l1.148.054c.032.052.1.074.079.14l.12.006c.087-.012.223.01.166.128.3.186.681.134.84.451a1.6,1.6,0,0,1,.55,1.465c-.178.182-.176.507-.359.723a.787.787,0,0,1-.866.132,1.99,1.99,0,0,0-.022-1.373c-.379.034-.221-.423-.657-.305-.02-.276-.412,0-.432-.278l-.091.116a3.23,3.23,0,0,0-1.489.19c-.077-.16-.168-.421-.061-.535-.041-.26.166-.627-.136-.762-.168-.11-.312-.321-.513-.435l-.773-.034a.532.532,0,0,1-.418.118l0,.068c-.334.14-.73.156-.933.455a2.464,2.464,0,0,0-1.187.734l-.049-.054a10.379,10.379,0,0,0-1.842,1.527c-.09.082-.1.269-.252.23l0,.084a.142.142,0,0,1-.138.046c-.181.164-.262.451-.508.543-.162.541-.523,1.263-.14,1.9.12.006.132.144.11.246l.138.006c.048.02.028.086.028.122.031.052.008.172.114.124.069,0,.1.074.079.142l.12.006c.071-.014.1.056.081.124l.207.01c.126.228.493.108.733.154.115.055.2-.164.266-.194.089-.066.207-.026.327-.02l.006-.085c.039-.084.1-.03.156-.044.114-.236.452-.134.568-.385l.032.052c.6-.659,1.01-1.411,1.568-1.952.16-.13.213-.521.438-.545l0-.086c.313-.088.737-.327,1.033-.038.073.655-.659.9-.837,1.4-.063.221-.323.277-.349.483-.473.184-.515.749-.754,1.08l-.088,0c.023.276-.225.419-.351.549a1.889,1.889,0,0,0,.489.932c.008.224.428.038.278.339.112-.2.391.07.416-.066.01.154.166.126.284.15.1-.2.367-.122.493-.236a.829.829,0,0,1,.516-.335c-.014-.07.061-.2.178-.163-.018-.344.412-.359.527-.629.349-.12.3-.636.722-.72l.317-.517c.254-.3.385-.567.623-.83.134.076.288.082.315.255.27.1.355.479.633.441a3.891,3.891,0,0,0,.832-.116l0-.086c.036-.084.12-.03.172-.044a.929.929,0,0,1,.607-.453c.132-.285.4-.427.6-.641.349-.1.388-.583.822-.664.1-.391.535-.405.69-.792.14-.405.613-.573.749-.944.249-.194.3-.5.615-.641a7.144,7.144,0,0,1,.606-.828,2.826,2.826,0,0,1,.619-.76c.227-.341.487-.727.72-1.108.11-.18.211-.357.3-.527.592-.2.982-.8,1.464-1.2.289.116.067-.307.339-.243l0-.084c.274-.006.191-.4.517-.423a.763.763,0,0,1,.467-.425,7.091,7.091,0,0,1,.619-.724c.312-.056.4-.359.594-.591C1403.562,1013.669,1403.564,1013.291,1403.329,1013.162Zm1.716-1.413a26.867,26.867,0,0,0-1.3-2.393c-.238-.046-.172-.333-.3-.477a2.121,2.121,0,0,1-.505-.591c-.567-.729-1.059-1.283-1.643-2.014-.359-.068-.359-.445-.558-.609-.038-.241-.316-.186-.339-.461-.2-.044-.329-.323-.446-.4l-.11-.211c-.249-.561-.5.046-.831.134-.207.367-.538.455-.775.737-.207.042-.292.363-.432.443.029.12-.061.186-.1.285.144.232.55.387.712.6.523.178.808.74,1.158.962l.036-.034c.077.176.353.154.4.379a1.739,1.739,0,0,0,.765.567c-.051.323.365.258.39.481a4.4,4.4,0,0,1,.935.952c.406.189.554.694.958.9.006.224.367.224.354.513a18.918,18.918,0,0,1,1.241,1.447c.266-.176.326-.4.614-.657C1405.2,1012.15,1405.193,1011.874,1405.044,1011.749Z" transform="translate(-1212.834 -802.416)"/></g></svg>